<?xml version="1.0" encoding="UTF-8"?>
<svg version="1.1" viewBox="0 0 2048 1177" width="951" height="547" xmlns="http://www.w3.org/2000/svg">
<path transform="translate(1708,5)" d="m0 0h44l29 3 26 5 25 7 20 7 24 11 23 12 20 13 19 14 14 12 13 12 11 11 8 10 3 7v12l-2 8-7 8-28 28-8 7-18 18-8 7-32 32-8 4h-6l-16-16-15-11-15-7-16-4h-15l-16 4-16 8-14 11-16 16-5-1-9-10v-2l-4-2-9-7-15-7-16-4-8-1h-10l-17 6-16 8-11 8-10 10-8 14-4 13-1 16 3 19 5 15 7 14 9 10 13 13 8 7 43 43 8 7 39 39 5 2 12-3 13-12 17-16 16-15 46-43 8-7 5-2 13 1 10 2 10 8 22 22 8 7 20 20 8 7 17 17 8 7 26 26-1 9-1 11-6 9-11 12-19 19-8 7-10 9-11 9-14 10-20 12-27 14-24 10-24 8-24 6-24 4-19 2h-40l-23-3-28-5-25-7-24-9-29-14-22-13-20-14-14-11-13-11-15-14-12-12-7-8-11-13-12-17-13-23-9-21-8-24-6-25-4-25-2-20-1-36 1-25 3-27 4-20 9-26 12-27 12-23 14-22 14-19 12-14 9-10 17-17 11-9 14-11 21-14 17-9 30-11 31-9 34-7 24-3z" fill="#222C3A"/>
<path transform="translate(14,13)" d="m0 0h441l5 7v156l-3 6-8 7-5 2-244 1-7 4-3 7 1 9 6 26v3h217l11 4 6 7 2 5v9l-10 25-17 40-19 45-8 19-4 13-1 5v17l4 9 6 5 8 3 60 1 6 4 2 3 1 13 1 53v85l-6 8-10 5h-431l-6-4-3-3-1-3v-585l5-8zm109 191-59 2-5 3-3 6-1 7 4 8 4 4 3 1 53 1 4 10 21 64 14 44 4 14 5 6 3 1h170l5-3 18-41 11-25 6-15v-10l-4-4-207-1-3-5-8-25-6-25-5-10-7-6-2-1zm70 203-11 4-8 7-5 11-1 9 3 10 6 8 5 4 10 4h9l9-3 6-4 6-7 3-8 1-9-3-10-6-8-9-6-7-2zm100 0-9 3-8 6-5 6-4 13 1 8 4 10 4 5 11 7 12 2 10-3 9-6 6-8 3-10v-7l-4-11-7-8-8-5-7-2z" fill="#222C3A"/>
<path transform="translate(515,13)" d="m0 0h260l43 10 24 7 28 11 21 11 21 14 16 13 20 20 10 13 10 15 12 23 8 21 7 24 4 21 2 17 1 16v27l-2 24-5 30-5 20-8 23-8 17-12 20-10 13-12 14-11 11-11 9-13 10-19 12-21 11-27 11-24 7-12 3-9 1-59-1-28-1-18-1-6 3-3 4v25l1 34v33l-4 9-3 2h-158l-6-6-1-3v-587l3-7zm244 104-8 4-8 7-7 9h-4l-11-12-10-6-4-1h-10l-8 5-5 6-2 5v8l5 10 14 14v5l-75 1-4 4v179l5 9 2 2h210l5-3 2-3v-184l-4-4-73-1 3-7 10-12 4-7 1-10-5-10-8-6-6-2z" fill="#222D3B"/>
<path transform="translate(16,668)" d="m0 0h92l99 1 43 1 25 7 20 8 20 10 19 12 16 12 13 11 16 16 9 11 10 10 11 14 9 14 8 16 7 19 6 24 4 29 1 16v30l-2 26-3 20-6 16-9 19-13 23-10 15-12 16-12 14-22 22-14 11-14 10-21 12-19 9-27 9-25 5-16 1h-211l-3-2v-481l3-3zm33 166-2 2-1 4v14l1 5 32 1 12 1 4 2 7 21 17 56 9 25 3 4 34 1 68 1h49l6-7 8-18 32-78 3-12-1-9-4-5-8-2h-167l-3 4-1 14 1 7 1 1 115 2 26 1-4 7-7 8-56 1h-36l-34-1-12-6-7-10-3-9-1-12-4-6-6-5-6-2zm102 156-10 5-7 8-3 12 3 10 4 6 8 6 6 2h7l11-4 7-7 3-7 1-9-4-11-7-7-10-4zm82 0-10 5-7 8-3 10 2 11 6 8 5 4 8 3h7l11-4 8-9 3-12-3-11-8-9-10-4z" fill="#3E85FA"/>
<path transform="translate(1337,10)" d="m0 0 9 1 7 6 1 2 1 574-2 16-4 9-1 1h-296l-7-6-1-594 5-5 3-1h142l2 1-1 13-27 124-30 138-5 21h16l33 1 15 1 1 1v7l-19 74-18 69-16 61-10 37v2l17-33 12-22 10-20 10-19 15-28 18-35 12-22 19-37 12-22 18-35 10-19 15-28 9-18v-5l-55-2-15-1-2-7 1-13 18-55 14-43 20-62 7-21 3-3 21-2z" fill="#222C3A"/>
<path transform="translate(380,666)" d="m0 0h112l349 1 4 6v124l-3 7-6 5-2 1-188 1-6 4-2 5 2 13 4 18 166 1 8 3 5 6 1 4v7l-17 43-20 50-6 16-2 9v15l4 8 5 4 2 1 12 1h28l10 1 5 6 1 42v80l-5 6-6 3-308 1-24-1-5-6-1-2-1-266-2-20-5-26-8-26-11-27-11-22-13-21-11-15-11-13-12-13-8-7-18-14-10-7 3-5zm193 155-30 1-5 2-3 7 1 9 5 6 2 1 41 1 8 25 20 64 5 18 5 5h134l6-13 16-39 6-15 1-8-2-4-2-1-159-1-5-15-5-21-4-13-4-6-4-3zm66 165-8 4-6 7-3 9v7l3 9 7 7 7 3h10l8-4 6-7 3-10-1-9-4-8-7-6-6-2zm77 0-9 4-6 7-3 9v9l3 8 6 7 10 4h7l8-3 6-5 4-8 1-3v-9l-3-9-5-6-10-5z" fill="#3E85FA"/>
<path transform="translate(1824,662)" d="m0 0h56l30 4 17 4 10 3 4 3 10 4 8 3v2l4 2 5 4v-2l4 2 10 10 4 3v2h2v2h2l7 8 11 10 3 3 2 5 5 6 4 8h-2l2 4 5 4 1 8 2 5v5h2l1 4-2 4 1 36 1 2v8l-2 2 1 3-5 4-8 2-10 1h-111l-11-1-6-4-5-5-5-7v-11l1-12-7-9-7-4-7 1-7 4-5 8v28l2 4 2 2-2 1 6 7 1 3h2l1 4 3-1 4 5h5l1 3h2v2h6l4 4 7 1 29 6 15 3 28 8 2 4 5-1 9 5 7 3 3 3v2l5 2 30 30 6 9 7 11 3 7 4 9h-2l3 5 1 12 3 5v32l-1 1-1 17-1 1v6l1 2v7l-3 14h-4l-1 10-3 9h-2l1 6-4 2-2 7-6 8-33 33-11 8-9 6-16 8-9 4-14 4-6 2-3 2-11 2h-98l-8-6-9-2-4-1-6-3v-2l-5 2-6-5-6-2-3-2-5-2v-3l-3-1-2 2-5-3-7-8-7-7h-3l-20-20-1-4-7-8-7-12-5-13-3-15v-49l3-9h5l3-2h127l13 3 6 7 3 5 1 16 3 9 4 2 8 5 6-2 7-6 4-7v-25l-3-5-1-6-3-4-2-4-5-2-1-3-8-2-7-3-9-3-19-3-10-3-16-3-18-5-8-2v-2h-4l-5-2v-2h-2v-2l-4 1v-2l-6-2-4-1-2-4-7-1v-2l-5-2-19-19-6-8-3-5-2-4-3-2-1-7-3-1-1-7-4-11-2-13v-86l2-8v-5l3-4 2-7 3-2v-5l4-4v-5l4-2 1-4-1-2 4-2 7-8 22-22 3-2 1-2h4 2l2-4 3-1 1-4 5 1h3l1-5 4 1 3-1 1-4h4v2h2l1-3h5l1-4 5 1 9-3 4-2 20-4zm-88 36m-5 4m-1 1m-1 1m-1 1m-1 1m-1 1m-1 1m-1 1m-1 1m-1 1m-1 1m-1 1m-1 1m-1 1m-1 1m-1 1m-1 1m-1 1m-1 1m-1 1m-1 1m-1 1m-3 4m-1 1m-1 1m-1 1m322 103 1 2 1-2zm7 130m4 31 1 2zm0 4 1 3zm0 10v7l2-1-1-6z" fill="#3E85FA"/>
<path transform="translate(1033,668)" d="m0 0h118l3 8 45 129 17 49 16 45 10 29 21 61 14 40 18 52 14 40 11 31 1 6-10 5h-116l-9-10-12-16-11-14-10-13-14-18-2-3-16-1-48-1h-37l-11 18-12 19-15 24-4 6h-129l1-7 15-44 15-43 17-49 15-43 19-55 15-43 19-55 17-49 18-52 10-28 6-17zm44 93-12 87-11 80 21 1-10 59-11 62-1 7 4-5 16-31 12-22 18-35 12-22 15-29 12-22 8-16-1-1-34-2 6-23 15-52 9-31 1-5z" fill="#3E85FA"/>
<path transform="translate(1370,668)" d="m0 0h118l18 1 1 347 99 1 30 1 3 5 1 3 1 78v44l-3 5-5 4-22 1h-235l-5-2-5-6-1-2-1-80-1-396z" fill="#3E85FA"/>
<path transform="translate(653,196)" d="m0 0h68l2 1 1 52 3 3 2 1h10l5-2 1-52 2-3h71l2 1v141l-1 1-162 1-6-2-1-25v-110l1-6z" fill="#222D3C"/>
<path transform="translate(181,310)" d="m0 0h156l-10 30-2 4-6 1-62 1h-61l-5-4-7-18-3-9z" fill="#222D3C"/>
<path transform="translate(631,907)" d="m0 0h120l-3 11-6 17-12 1-86 1-5-4-6-17z" fill="#3E85FA"/>
<path transform="translate(153,921)" d="m0 0h116l-8 16-3 4-28 1h-76l-1-6z" fill="#3E85FA"/>
<path transform="translate(701,134)" d="m0 0 7 1 10 9 5 10v7l-2 2h-5l-13-12-6-7-1-4 3-5z" fill="#263A57"/>
<path transform="translate(760,134)" d="m0 0h7l3 3 1 6-14 14-5 6-5-2-1-1 1-10 3-7 5-6z" fill="#273C5B"/>
<path transform="translate(1703,1111)" d="m0 0 2 1-1 2z" fill="#3E85FA"/>
<path transform="translate(1694,1097)" d="m0 0" fill="#3E85FA"/>
<path transform="translate(2030,769)" d="m0 0 2 1z" fill="#3E85FA"/>
<path transform="translate(2011,729)" d="m0 0 2 1z" fill="#3E85FA"/>
<path transform="translate(1739,1146)" d="m0 0" fill="#3E85FA"/>
<path transform="translate(1736,1143)" d="m0 0" fill="#3E85FA"/>
<path transform="translate(1735,1142)" d="m0 0" fill="#3E85FA"/>
<path transform="translate(1734,1141)" d="m0 0" fill="#3E85FA"/>
<path transform="translate(1732,1139)" d="m0 0" fill="#3E85FA"/>
<path transform="translate(1730,1139)" d="m0 0" fill="#3E85FA"/>
<path transform="translate(1731,1138)" d="m0 0" fill="#3E85FA"/>
<path transform="translate(1730,1137)" d="m0 0" fill="#3E85FA"/>
<path transform="translate(1728,1137)" d="m0 0" fill="#3E85FA"/>
<path transform="translate(1729,1136)" d="m0 0" fill="#3E85FA"/>
<path transform="translate(1728,1135)" d="m0 0" fill="#3E85FA"/>
<path transform="translate(1708,1117)" d="m0 0" fill="#3E85FA"/>
<path transform="translate(1706,1115)" d="m0 0" fill="#3E85FA"/>
<path transform="translate(1702,1110)" d="m0 0" fill="#3E85FA"/>
</svg>
